<svg width="301" height="305" viewBox="0 0 301 305" fill="none" xmlns="http://www.w3.org/2000/svg">
<path d="M136.24 243.395L60.7985 175.467C58.5027 173.4 58.3174 169.865 60.3846 167.569L98.5289 125.206C100.596 122.91 104.131 122.724 106.427 124.792L119.169 136.265C132.177 127.79 149.547 128.919 161.401 139.593C173.255 150.266 176.194 167.424 169.125 181.245L181.868 192.719C184.163 194.785 184.349 198.321 182.282 200.617L144.137 242.98C142.071 245.276 138.534 245.461 136.24 243.395ZM72.4388 170.897L139.568 231.341L170.228 197.289L158.212 186.47C156.103 184.571 155.751 181.394 157.393 179.078C164.314 169.323 162.819 155.921 153.917 147.905C145.015 139.889 131.53 139.805 122.55 147.706C120.42 149.581 117.223 149.563 115.113 147.664L103.098 136.845L72.4383 170.897L72.4388 170.897Z" fill="url(#paint0_linear)"/>
<path d="M264.45 162.436C265.576 161.185 266.028 159.567 265.841 158.019C265.839 158.003 265.842 157.991 265.84 157.975L262.336 130.964C267.651 131.541 273.162 129.65 277.004 125.383C283.354 118.329 282.783 107.426 275.731 101.076L187.757 21.8635C180.705 15.5139 169.8 16.0848 163.45 23.1379C159.607 27.4054 158.304 33.083 159.432 38.3091L132.203 37.6479L132.203 37.6521C130.629 37.6138 129.048 38.2346 127.912 39.4964C125.845 41.7922 126.031 45.3279 128.326 47.3946C130.085 48.9787 131.159 50.4484 131.88 51.9586C124.516 52.5885 117.598 55.8545 112.35 61.3561C112.249 61.4533 20.2411 163.624 20.2411 163.624C10.3269 174.635 11.2191 191.659 22.2305 201.573L114.309 284.481C125.32 294.396 142.344 293.504 152.258 282.493C152.258 282.493 244.25 180.308 244.336 180.198C249.26 174.405 251.789 167.183 251.649 159.795C253.222 160.354 254.795 161.269 256.552 162.851C258.847 164.916 262.383 164.732 264.45 162.436ZM180.272 30.1756L268.247 109.388C270.715 111.611 270.915 115.429 268.692 117.898C266.469 120.367 262.651 120.567 260.183 118.344L172.208 39.1317C169.739 36.9083 169.539 33.0909 171.762 30.6222C173.985 28.1529 177.803 27.9523 180.272 30.1756ZM167.215 49.6865L250.209 124.414L253.348 148.623C250.798 147.967 248.433 147.791 246.296 147.632C242.138 147.324 239.134 147.101 235.212 143.569C231.289 140.037 230.753 137.072 230.011 132.97C229.139 128.145 228.054 122.14 221.29 116.05C214.526 109.959 208.44 109.508 203.551 109.145C199.394 108.837 196.391 108.614 192.469 105.083C188.547 101.552 188.012 98.5879 187.27 94.4858C186.398 89.6608 185.313 83.6558 178.549 77.5656C171.786 71.4759 165.701 71.025 160.811 70.6619C156.654 70.3534 153.65 70.1306 149.729 66.6C145.808 63.0694 145.273 60.1049 144.531 56.0037C144.151 53.8953 143.728 51.5621 142.81 49.0949L167.215 49.6865ZM143.945 275.008C138.157 281.437 128.219 281.956 121.792 276.169L29.7137 193.261C23.2851 187.473 22.7643 177.536 28.5521 171.108L120.044 69.4964C123.831 65.2904 129.103 62.9951 134.628 63.0176C135.699 66.7192 137.673 70.7953 142.244 74.9116C149.008 81.0013 155.094 81.4532 159.983 81.8158C164.14 82.1244 167.144 82.3471 171.064 85.8772C174.985 89.4078 175.521 92.3728 176.263 96.474C177.134 101.298 178.22 107.304 184.984 113.394C191.747 119.484 197.833 119.936 202.722 120.298C206.879 120.607 209.883 120.83 213.804 124.361C217.726 127.892 218.262 130.856 219.004 134.959C219.876 139.784 220.962 145.789 227.726 151.88C232.3 155.998 236.562 157.535 240.355 158.213C240.954 163.704 239.224 169.19 235.436 173.396L143.945 275.008L143.945 275.008Z" fill="url(#paint1_linear)"/>
<defs>
<linearGradient id="paint0_linear" x1="161.401" y1="139.593" x2="98.5189" y2="209.431" gradientUnits="userSpaceOnUse">
<stop stop-color="#FA8C0B"/>
<stop offset="1" stop-color="#EC5717"/>
</linearGradient>
<linearGradient id="paint1_linear" x1="231.744" y1="61.4697" x2="68.269" y2="243.027" gradientUnits="userSpaceOnUse">
<stop stop-color="#FA8C0B"/>
<stop offset="1" stop-color="#EC5717"/>
</linearGradient>
</defs>
</svg>
