<svg width="612" height="174" viewBox="0 0 612 174" fill="none" xmlns="http://www.w3.org/2000/svg">
<path d="M0 5C0 2.23858 2.23858 0 5 0H607C609.761 0 612 2.23858 612 5V169C612 171.761 609.761 174 607 174H5.00001C2.23858 174 0 171.761 0 169V5Z" fill="#F7F7F7"/>
<path d="M162.591 32.1934H180.641V68.3525L214.536 32.1934H238.245L202.265 68.3525L240.092 120H216.502L189.397 81.6367L180.641 90.6318V120H162.591V32.1934Z" fill="#111827"/>
<path d="M272.117 108.026C277.081 108.026 280.893 106.259 283.554 102.725C286.215 99.1901 287.546 94.1663 287.546 87.6533C287.546 81.1403 286.215 76.1364 283.554 72.6416C280.893 69.1071 277.081 67.3398 272.117 67.3398C267.153 67.3398 263.32 69.1071 260.62 72.6416C257.959 76.1364 256.629 81.1403 256.629 87.6533C256.629 94.1663 257.959 99.1901 260.62 102.725C263.32 106.259 267.153 108.026 272.117 108.026ZM305.357 87.6533C305.357 97.1846 302.617 105.346 297.136 112.137C291.656 118.888 283.336 122.264 272.176 122.264C261.017 122.264 252.697 118.888 247.216 112.137C241.736 105.346 238.996 97.1846 238.996 87.6533C238.996 78.2809 241.736 70.1595 247.216 63.2891C252.697 56.4186 261.017 52.9834 272.176 52.9834C283.336 52.9834 291.656 56.4186 297.136 63.2891C302.617 70.1595 305.357 78.2809 305.357 87.6533Z" fill="#111827"/>
<path d="M384.026 53.6387C386.885 53.6387 389.705 54.1947 392.485 55.3066C395.265 56.4186 397.786 58.3646 400.05 61.1445C401.877 63.4082 403.108 66.1882 403.743 69.4844C404.14 71.6686 404.339 74.8656 404.339 79.0752L404.22 120H386.825V78.6582C386.825 76.196 386.428 74.1706 385.634 72.582C384.125 69.5638 381.345 68.0547 377.294 68.0547C372.608 68.0547 369.371 70.0007 367.584 73.8926C366.671 75.9577 366.214 78.4398 366.214 81.3389V120H349.117V81.3389C349.117 77.4867 348.72 74.6868 347.926 72.9395C346.496 69.8021 343.696 68.2334 339.527 68.2334C334.682 68.2334 331.425 69.8021 329.757 72.9395C328.844 74.7266 328.387 77.3874 328.387 80.9219V120H311.171V55.1875H327.672V64.6592C329.777 61.2835 331.763 58.8809 333.629 57.4512C336.925 54.9095 341.195 53.6387 346.437 53.6387C351.401 53.6387 355.412 54.7308 358.47 56.915C360.932 58.9404 362.799 61.5417 364.07 64.7188C366.293 60.9062 369.054 58.1064 372.35 56.3193C375.845 54.5322 379.737 53.6387 384.026 53.6387Z" fill="#111827"/>
<path d="M458.643 87.5342C458.643 82.5303 457.492 78.1022 455.188 74.25C452.925 70.3978 449.231 68.4717 444.108 68.4717C437.953 68.4717 433.723 71.3906 431.42 77.2285C430.228 80.3262 429.633 84.2578 429.633 89.0234C429.633 96.569 431.638 101.871 435.649 104.929C438.032 106.716 440.852 107.609 444.108 107.609C448.834 107.609 452.428 105.783 454.89 102.129C457.392 98.4753 458.643 93.6104 458.643 87.5342ZM448.993 53.6387C456.578 53.6387 462.992 56.4385 468.234 62.0381C473.516 67.6377 476.157 75.8584 476.157 86.7002C476.157 98.1377 473.576 106.855 468.413 112.852C463.29 118.848 456.678 121.847 448.576 121.847C443.413 121.847 439.124 120.556 435.709 117.975C433.842 116.545 432.015 114.46 430.228 111.72V145.556H413.43V55.0684H429.692V64.6592C431.519 61.8395 433.465 59.6156 435.53 57.9873C439.303 55.0882 443.791 53.6387 448.993 53.6387Z" fill="#111827"/>
<path d="M511.518 108.026C516.482 108.026 520.295 106.259 522.955 102.725C525.616 99.1901 526.947 94.1663 526.947 87.6533C526.947 81.1403 525.616 76.1364 522.955 72.6416C520.295 69.1071 516.482 67.3398 511.518 67.3398C506.554 67.3398 502.721 69.1071 500.021 72.6416C497.36 76.1364 496.03 81.1403 496.03 87.6533C496.03 94.1663 497.36 99.1901 500.021 102.725C502.721 106.259 506.554 108.026 511.518 108.026ZM544.758 87.6533C544.758 97.1846 542.018 105.346 536.538 112.137C531.057 118.888 522.737 122.264 511.578 122.264C500.418 122.264 492.098 118.888 486.618 112.137C481.137 105.346 478.397 97.1846 478.397 87.6533C478.397 78.2809 481.137 70.1595 486.618 63.2891C492.098 56.4186 500.418 52.9834 511.578 52.9834C522.737 52.9834 531.057 56.4186 536.538 63.2891C542.018 70.1595 544.758 78.2809 544.758 87.6533Z" fill="#111827"/>
<path d="M544.198 67.7568V55.6641H553.253V37.5547H570.052V55.6641H580.596V67.7568H570.052V102.069C570.052 104.73 570.389 106.398 571.064 107.073C571.74 107.709 573.805 108.026 577.26 108.026C577.776 108.026 578.312 108.026 578.868 108.026C579.464 107.987 580.04 107.947 580.596 107.907V120.596L572.554 120.894C564.532 121.172 559.051 119.782 556.112 116.724C554.206 114.778 553.253 111.779 553.253 107.729V67.7568H544.198Z" fill="#111827"/>
<path d="M67.8976 120.713L35.2868 91.497C34.2944 90.6079 34.2146 89.0869 35.1087 88.099L51.6059 69.8685C52.4999 68.8805 54.0285 68.8004 55.0209 69.6895L60.5288 74.6241C66.154 70.9765 73.6641 71.4606 78.7883 76.0514C83.9123 80.642 85.181 88.0238 82.1233 93.9708L87.6315 98.9057C88.6237 99.7945 88.7036 101.316 87.8096 102.304L71.3124 120.534C70.4188 121.522 68.8896 121.602 67.8976 120.713ZM40.3202 89.5295L69.338 115.527L82.5983 100.873L77.4042 96.2199C76.4925 95.4031 76.3407 94.0361 77.051 93.0398C80.0444 88.8418 79.3996 83.076 75.5514 79.6284C71.7032 76.1808 65.8729 76.1458 61.9894 79.5464C61.0683 80.3533 59.6858 80.3458 58.7739 79.5288L53.5802 74.8758L40.32 89.5293L40.3202 89.5295Z" fill="url(#paint0_linear)"/>
<path d="M123.335 85.87C123.822 85.3318 124.018 84.6356 123.937 83.9695C123.936 83.9627 123.937 83.9575 123.937 83.9507L122.425 72.3309C124.723 72.5784 127.105 71.7644 128.767 69.9281C131.513 66.8929 131.268 62.2023 128.219 59.4712L90.1932 25.4032C87.145 22.6723 82.4306 22.9191 79.6841 25.9541C78.0224 27.7905 77.4583 30.2332 77.9455 32.4814L66.1733 32.2L66.1734 32.2018C65.4925 32.1854 64.8091 32.4527 64.3178 32.9957C63.4238 33.9836 63.5038 35.5046 64.4959 36.3935C65.2564 37.0748 65.7205 37.7069 66.0321 38.3566C62.8482 38.6284 59.8568 40.0342 57.5874 42.4016C57.5435 42.4435 17.753 86.4084 17.753 86.4084C13.4655 91.1464 13.8493 98.4703 18.6089 102.734L58.409 138.392C63.1685 142.656 70.529 142.27 74.8165 137.532C74.8165 137.532 114.6 93.5609 114.637 93.5138C116.767 91.0211 117.861 87.9136 117.801 84.7352C118.481 84.9755 119.161 85.3691 119.921 86.0494C120.913 86.9378 122.441 86.8579 123.335 85.87ZM86.9565 28.9799L124.983 63.0479C126.05 64.004 126.136 65.6465 125.174 66.709C124.213 67.7713 122.562 67.8578 121.495 66.9018L83.4691 32.8338C82.4017 31.8776 82.3157 30.2353 83.277 29.173C84.2385 28.1105 85.8892 28.0237 86.9565 28.9799ZM81.309 37.3752L117.182 69.5144L118.537 79.9288C117.434 79.6468 116.412 79.5716 115.488 79.5035C113.691 79.3712 112.392 79.2755 110.696 77.7564C109.001 76.2376 108.77 74.962 108.449 73.1975C108.073 71.1219 107.604 68.5384 104.68 65.9191C101.757 63.2998 99.1258 63.1063 97.0121 62.9508C95.2148 62.8186 93.9163 62.7231 92.2212 61.2044C90.5261 59.6857 90.2952 58.4106 89.9746 56.6459C89.5981 54.5703 89.1297 51.987 86.206 49.3677C83.2827 46.7486 80.6519 46.5553 78.5379 46.3997C76.7406 46.2674 75.4422 46.1719 73.7473 44.6534C72.0524 43.135 71.8213 41.8597 71.5012 40.0954C71.337 39.1884 71.1545 38.1847 70.7579 37.1233L81.309 37.3752ZM71.2232 134.313C68.7202 137.079 64.4234 137.304 61.6452 134.815L21.8451 99.1577C19.0664 96.6682 18.8424 92.3933 21.3454 89.6272L60.9126 45.9028C62.5504 44.0929 64.8302 43.1049 67.2187 43.1139C67.6813 44.7063 68.5343 46.4596 70.5104 48.23C73.4337 50.8491 76.065 51.0428 78.1787 51.1983C79.9761 51.3305 81.2745 51.426 82.9691 52.9443C84.664 54.4627 84.8954 55.7382 85.2155 57.5025C85.5918 59.578 86.0604 62.1615 88.9841 64.7808C91.9077 67.4 94.5387 67.5936 96.6524 67.749C98.4497 67.8813 99.7482 67.9768 101.443 69.4954C103.138 71.0141 103.37 72.2894 103.69 74.0541C104.067 76.1298 104.535 78.7133 107.459 81.3328C109.436 83.104 111.279 83.7648 112.918 84.0559C113.177 86.4183 112.428 88.7785 110.79 90.5885L71.223 134.313H71.2232Z" fill="url(#paint1_linear)"/>
<defs>
<linearGradient id="paint0_linear" x1="78.7883" y1="76.0514" x2="51.7423" y2="106.24" gradientUnits="userSpaceOnUse">
<stop stop-color="#FA8C0B"/>
<stop offset="1" stop-color="#EC5717"/>
</linearGradient>
<linearGradient id="paint1_linear" x1="109.206" y1="42.4372" x2="38.8993" y2="120.913" gradientUnits="userSpaceOnUse">
<stop stop-color="#FA8C0B"/>
<stop offset="1" stop-color="#EC5717"/>
</linearGradient>
</defs>
</svg>
